<?xml version="1.0" encoding="iso-8859-1"?>
<!-- Generator: Adobe Illustrator 16.0.0, SVG Export Plug-In . SVG Version: 6.00 Build 0)  -->
<!DOCTYPE svg PUBLIC "-//W3C//DTD SVG 1.1//EN" "http://www.w3.org/Graphics/SVG/1.1/DTD/svg11.dtd">
<svg version="1.1" id="Capa_1" xmlns="http://www.w3.org/2000/svg" xmlns:xlink="http://www.w3.org/1999/xlink" x="0px" y="0px"
	 width="326.7px" height="326.7px" viewBox="0 0 326.7 326.7" style="enable-background:new 0 0 326.7 326.7;" xml:space="preserve"
	>
<g>
	<g>
		<path d="M304.056,326.7l-11.729-36.735h11.729l-11.729-36.734h11.729l-11.729-36.74h11.729l-11.443-35.859h11.443L246.406,0
			H86.055L22.644,180.637h12.587l-12.587,35.859h12.894L22.644,253.23h12.894l-12.894,36.734h12.894L22.644,326.7H304.056z
			 M90.64,35.862L97.542,16.2h137.031l6.275,19.662l41.027,128.574h-2.938h-3.223h-5.283h-3.217h-3.217h-5.284h-3.217h-3.217h-5.284
			h-3.238h-8.495H96.78h-8.593h-4.309h-4.276h-4.314h-4.311h-4.276h-4.314h-4.308h-4.271h-4.316h-4.005L90.64,35.862z
			 M52.402,180.637h4.311h4.313h4.271h4.309h4.316h4.271h4.309h8.585h149.344h8.495h3.228h5.284h3.217h3.217h5.284h3.217h3.217
			l6.275,19.659h-3.217h-3.217h-5.289h-3.223h-3.217h-5.278h-3.212h-8.501H84.193h-8.585h-4.311H67.02h-4.314h-4.308h-4.271H49.81
			h-4.314L52.402,180.637z M52.71,216.496h4.308h4.316h4.271h4.309H78.5h173.37h8.511h3.217h5.284h3.217h3.217l6.555,20.534h-3.222
			h-3.217h-5.279h-3.222h-8.501H71.292h-8.585h-4.308h-4.271H49.81h-4.314L52.71,216.496z M52.71,253.23h4.308h8.588h197.991h8.501
			h3.222l6.556,20.54h-3.217h-8.507H58.398H49.81h-4.314L52.71,253.23z M52.71,289.965h222.616l6.555,20.535H45.502L52.71,289.965z"
			/>
	</g>
</g>
<g>
</g>
<g>
</g>
<g>
</g>
<g>
</g>
<g>
</g>
<g>
</g>
<g>
</g>
<g>
</g>
<g>
</g>
<g>
</g>
<g>
</g>
<g>
</g>
<g>
</g>
<g>
</g>
<g>
</g>
</svg>
